<?xml version="1.0" encoding="UTF-8"?>
<!-- My Brand New Logo (1.0.120), id: DDjmBA8VQOsZPnN8pkXE (1.2.0), date: 2022-02-17 19:15 -->
<svg version="1.1" preserveAspectRatio="xMidYMid meet" xmlns="http://www.w3.org/2000/svg" xmlns:xlink="http://www.w3.org/1999/xlink" viewBox="191.693 191.25 616.615 617.501" width="1000" height="1000">
	<defs>
		<path id="def-1" d="M797.008,500 A297.008,297.008 0 1 0 202.992,500 A297.008,297.008 0 1 0 797.008,500 Z" stroke-linecap="round" stroke-linejoin="round" stroke-miterlimit="25"></path>
		<g id="def-2">
			<path d="M220.531,500 A279.469,279.469 0 1 0 779.469,500 A279.469,279.469 0 1 0 220.531,500 Z M772.07,500 A272.07,272.07 0 1 1 227.93,500 A272.07,272.07 0 1 1 772.07,500 Z" fill="#000"></path>
			<use xlink:href="#def-1" fill="none" stroke="#000" stroke-width="2.102"></use>
		</g>
		<g id="def-3" transform="matrix(4.715, 0, 0, 4.715, 344.394, 344.394)" fill="#000" stroke="none" stroke-width="1">
			<g transform="translate(-17, -17)">
				<g></g>
				<path d=" M82.29,17.5 L49.895,43.494 L17.5,17.5 L17.5,82.309 L49.895,56.315 L82.29,82.309 L82.29,17.5 Z M57.884,49.904 L72.29,38.345 L72.29,61.463 L57.884,49.904 Z M27.5,38.345 L41.906,49.904 L27.5,61.463 L27.5,38.345 Z"></path>
			</g>
		</g>
		<mask id="mask-1" x="101.014" y="100.571" width="797.972" height="798.858" maskUnits="userSpaceOnUse" stroke-width="0">
			<rect x="137.286" y="136.842" width="725.429" height="726.315" fill="#fff"></rect>
			<use xlink:href="#def-2"></use>
			<use xlink:href="#def-3"></use>
		</mask>
		<g id="def-4" mask="url(#mask-1)">
			<use xlink:href="#def-1" stroke-width="10.509"></use>
		</g>
		<mask id="mask-2" x="101.014" y="100.571" width="797.972" height="798.858" maskUnits="userSpaceOnUse" stroke-width="0">
			<rect x="137.286" y="136.842" width="725.429" height="726.315" fill="#000"></rect>
			<use xlink:href="#def-4" fill="#fff" stroke="#fff"></use>
		</mask>
		<pattern id="def-5" patternUnits="userSpaceOnUse" patternContentUnits="userSpaceOnUse" patternTransform="rotate(0, 500, 500) translate(500, 500) scale(1) translate(-500, -500)" x="465.4115980258188" y="496.24999607301237" width="69.177" height="7.5" viewBox="0 0 69.177 7.5">
			<path d="M-34.588,7.5 Q-51.883,7.5,-34.588,0 T0,0 T34.588,0 T69.177,0 T103.765,0 M-34.588,15 Q-51.883,15,-34.588,7.5 T0,7.5 T34.588,7.5 T69.177,7.5 T103.765,7.5" fill="none" stroke="#fff" stroke-width="2.866" stroke-opacity="0.3" stroke-linecap="square"></path>
		</pattern>
		<radialGradient id="gradient-1" gradientUnits="objectBoundingBox" gradientTransform="translate(0.5, 0.5) scale(1, 66.357) translate(-0.5, -0.5)" cx="0.5" cy="-0.03" r="1.03">
			<stop offset="0" stop-color="#7082ff" stop-opacity="1"></stop>
			<stop offset="0.5" stop-color="#5171ff" stop-opacity="1"></stop>
			<stop offset="1" stop-color="#2f60e1" stop-opacity="1"></stop>
		</radialGradient>
	</defs>
	<g mask="url(#mask-2)">
		<rect x="137.286" y="136.842" width="725.429" height="726.315" fill="#5171ff"></rect>
		<g>
			<rect x="137.28551785982205" y="136.8424178842361" width="725.4289492563544" height="726.3151563775525" fill="url(#def-5)"></rect>
		</g>
	</g>
</svg>
