<?xml version="1.0" encoding="UTF-8"?>
<!-- My Brand New Logo (1.0.120), id: DDjmBA8VQOsZPnN8pkXE (1.2.0), date: 2022-02-17 19:15 -->
<svg version="1.1" preserveAspectRatio="xMidYMid meet" xmlns="http://www.w3.org/2000/svg" xmlns:xlink="http://www.w3.org/1999/xlink" viewBox="30.009 402.603 939.983 194.794" width="1000" height="208">
	<defs>
		<path id="def-1" d="M220.956,500 A93.69,93.69 0 1 0 33.576,500 A93.69,93.69 0 1 0 220.956,500 Z" stroke-linecap="round" stroke-linejoin="round" stroke-miterlimit="25"></path>
		<g id="def-2">
			<path d="M39.108,500 A88.157,88.157 0 1 0 215.423,500 A88.157,88.157 0 1 0 39.108,500 Z M213.089,500 A85.823,85.823 0 1 1 41.442,500 A85.823,85.823 0 1 1 213.089,500 Z" fill="#000"></path>
			<use xlink:href="#def-1" fill="none" stroke="#000" stroke-width="0.663"></use>
		</g>
		<g id="def-3" transform="matrix(1.487, 0, 0, 1.487, 78.181, 450.915)" fill="#000" stroke="none" stroke-width="1">
			<g transform="translate(-17, -17)">
				<g></g>
				<path d=" M82.29,17.5 L49.895,43.494 L17.5,17.5 L17.5,82.309 L49.895,56.315 L82.29,82.309 L82.29,17.5 Z M57.884,49.904 L72.29,38.345 L72.29,61.463 L57.884,49.904 Z M27.5,38.345 L41.906,49.904 L27.5,61.463 L27.5,38.345 Z"></path>
			</g>
		</g>
		<mask id="mask-1" x="1.407" y="374.002" width="251.717" height="251.997" maskUnits="userSpaceOnUse" stroke-width="0">
			<rect x="12.849" y="385.443" width="228.834" height="229.113" fill="#fff"></rect>
			<use xlink:href="#def-2"></use>
			<use xlink:href="#def-3"></use>
		</mask>
		<g id="def-4" mask="url(#mask-1)">
			<use xlink:href="#def-1" stroke-width="3.315"></use>
		</g>
		<path id="def-5" d="M261.432,439.852 Q260.752,439.852,260.752,439.08 L260.752,439.08 Q260.752,438.718,260.843,438.536 L260.843,438.536 L272.137,407.102 Q272.319,406.603,272.568,406.399 Q272.818,406.195,273.317,406.195 L273.317,406.195 L280.12,406.195 Q280.619,406.195,280.982,406.467 Q281.345,406.739,281.481,407.193 L281.481,407.193 L292.685,438.627 Q292.776,438.899,292.776,439.035 L292.776,439.035 Q292.776,439.398,292.617,439.625 Q292.458,439.852,292.141,439.852 L292.141,439.852 L285.473,439.852 Q284.792,439.852,284.611,439.217 L284.611,439.217 L282.252,432.594 Q282.162,432.322,282.048,432.209 Q281.935,432.095,281.663,432.095 L281.663,432.095 L270.595,432.095 Q270.141,432.095,270.005,432.549 L270.005,432.549 L267.601,439.262 Q267.329,439.852,266.649,439.852 L266.649,439.852 L261.432,439.852 Z M272.364,426.062 L279.803,426.062 Q280.257,426.062,280.257,425.7 L280.257,425.7 Q280.257,425.427,280.211,425.291 L280.211,425.291 L276.401,414.677 Q276.265,414.405,276.083,414.405 L276.083,414.405 Q275.947,414.405,275.811,414.723 L275.811,414.723 L271.956,425.291 Q271.865,425.563,271.865,425.7 L271.865,425.7 Q271.865,426.062,272.364,426.062 L272.364,426.062 Z M305.068,439.852 Q304.66,439.852,304.433,439.625 Q304.206,439.398,304.206,439.035 L304.206,439.035 L304.206,407.148 Q304.206,406.694,304.456,406.445 Q304.705,406.195,305.113,406.195 L305.113,406.195 L317.406,406.195 Q324.073,406.195,327.589,408.44 Q331.104,410.686,331.104,415.04 L331.104,415.04 Q331.104,417.58,329.743,419.327 Q328.382,421.073,325.162,422.388 L325.162,422.388 Q325.026,422.434,325.026,422.57 Q325.026,422.706,325.162,422.751 L325.162,422.751 Q328.7,423.931,330.31,425.813 Q331.921,427.695,331.921,430.734 L331.921,430.734 Q331.921,435.361,328.451,437.606 Q324.981,439.852,317.995,439.852 L317.995,439.852 L305.068,439.852 Z M312.779,420.075 L318.086,420.075 Q320.309,420.075,321.783,419.009 Q323.257,417.943,323.257,415.947 L323.257,415.947 Q323.257,413.861,321.715,412.704 Q320.172,411.548,317.678,411.548 L317.678,411.548 L313.006,411.548 Q312.552,411.548,312.348,411.729 Q312.144,411.91,312.144,412.319 L312.144,412.319 L312.144,419.259 Q312.144,419.712,312.28,419.894 Q312.416,420.075,312.779,420.075 L312.779,420.075 Z M312.779,434.499 L317.768,434.499 Q320.671,434.499,322.168,433.297 Q323.665,432.095,323.665,430.009 L323.665,430.009 Q323.665,427.922,322.123,426.765 Q320.581,425.609,318.086,425.609 L318.086,425.609 L313.006,425.609 Q312.507,425.609,312.325,425.768 Q312.144,425.926,312.144,426.38 L312.144,426.38 L312.144,433.637 Q312.144,434.091,312.28,434.295 Q312.416,434.499,312.779,434.499 L312.779,434.499 Z M363.128,414.133 Q361.948,412.818,360.429,412.069 Q358.909,411.321,356.46,411.321 L356.46,411.321 Q353.693,411.321,352.241,412.319 Q350.79,413.317,350.79,414.949 L350.79,414.949 Q350.79,417.308,354.464,418.397 L354.464,418.397 L361.631,420.438 Q365.668,421.572,367.641,424.021 Q369.614,426.471,369.614,429.918 L369.614,429.918 Q369.614,433.093,367.981,435.429 Q366.348,437.765,363.286,439.035 Q360.225,440.305,356.097,440.305 L356.097,440.305 Q351.47,440.305,347.751,438.74 Q344.031,437.175,342.308,434.454 L342.308,434.454 Q342.126,434.136,342.126,433.864 L342.126,433.864 Q342.126,433.501,342.58,433.093 L342.58,433.093 L346.073,430.689 Q346.526,430.417,346.889,430.417 L346.889,430.417 Q347.297,430.417,347.569,430.78 L347.569,430.78 Q349.248,432.957,350.971,433.864 Q352.695,434.771,355.553,434.771 L355.553,434.771 Q358.592,434.771,360.315,433.819 Q362.039,432.866,362.039,430.961 L362.039,430.961 Q362.039,429.736,361.177,428.875 Q360.315,428.013,358.274,427.378 L358.274,427.378 L351.425,425.427 Q347.524,424.339,345.392,421.776 Q343.26,419.213,343.26,415.947 L343.26,415.947 Q343.26,413.044,344.871,410.731 Q346.481,408.418,349.429,407.08 Q352.377,405.742,356.233,405.742 L356.233,405.742 Q360.043,405.742,363.218,407.034 Q366.393,408.327,368.072,410.504 L368.072,410.504 Q368.344,410.867,368.344,411.139 L368.344,411.139 Q368.344,411.411,368.072,411.638 L368.072,411.638 L364.262,414.45 Q363.989,414.632,363.853,414.632 L363.853,414.632 Q363.626,414.632,363.128,414.133 L363.128,414.133 Z M395.741,440.305 Q390.978,440.305,387.463,438.241 Q383.947,436.177,382.065,432.322 Q380.183,428.466,380.183,423.159 L380.183,423.159 Q380.183,417.807,382.088,413.883 Q383.993,409.96,387.508,407.851 Q391.023,405.742,395.741,405.742 L395.741,405.742 Q400.413,405.742,403.905,407.851 Q407.398,409.96,409.303,413.883 Q411.208,417.807,411.208,423.114 L411.208,423.114 Q411.208,428.376,409.326,432.254 Q407.443,436.132,403.951,438.219 Q400.458,440.305,395.741,440.305 L395.741,440.305 Z M395.741,434.726 Q399.506,434.726,401.206,432.004 Q402.907,429.283,402.907,423.205 L402.907,423.205 Q402.907,416.991,401.161,414.133 Q399.415,411.275,395.741,411.275 L395.741,411.275 Q391.976,411.275,390.23,414.133 Q388.483,416.991,388.483,423.205 L388.483,423.205 Q388.483,429.283,390.207,432.004 Q391.931,434.726,395.741,434.726 L395.741,434.726 Z M423.228,407.057 Q423.228,406.195,423.954,406.195 L423.954,406.195 L430.44,406.195 Q431.166,406.195,431.166,407.012 L431.166,407.012 L431.166,433.456 Q431.166,433.773,431.28,433.91 Q431.393,434.046,431.665,434.046 L431.665,434.046 L446.135,434.046 Q446.951,434.046,446.951,434.726 L446.951,434.726 L446.951,439.035 Q446.951,439.398,446.724,439.625 Q446.498,439.852,446.089,439.852 L446.089,439.852 L424.226,439.852 Q423.682,439.852,423.455,439.625 Q423.228,439.398,423.228,438.899 L423.228,438.899 L423.228,407.057 Z M483.601,427.378 Q483.601,434.272,480.109,437.289 Q476.616,440.305,470.039,440.305 L470.039,440.305 Q462.827,440.305,459.652,436.903 Q456.477,433.501,456.477,426.561 L456.477,426.561 L456.477,407.102 Q456.477,406.694,456.681,406.445 Q456.885,406.195,457.202,406.195 L457.202,406.195 L463.734,406.195 Q464.414,406.195,464.414,407.012 L464.414,407.012 L464.414,427.559 Q464.414,431.233,465.979,432.934 Q467.544,434.635,470.629,434.635 L470.629,434.635 Q477.07,434.635,477.07,427.423 L477.07,427.423 L477.07,407.057 Q477.07,406.195,477.75,406.195 L477.75,406.195 L482.921,406.195 Q483.601,406.195,483.601,407.012 L483.601,407.012 L483.601,427.378 Z M494.714,411.23 L494.714,407.012 Q494.714,406.649,494.964,406.422 Q495.213,406.195,495.621,406.195 L495.621,406.195 L521.658,406.195 Q522.565,406.195,522.565,407.012 L522.565,407.012 L522.565,411.23 Q522.565,411.91,521.748,411.91 L521.748,411.91 L513.266,411.91 Q512.767,411.91,512.767,412.364 L512.767,412.364 L512.767,438.99 Q512.767,439.852,511.996,439.852 L511.996,439.852 L505.51,439.852 Q504.829,439.852,504.829,439.08 L504.829,439.08 L504.829,412.5 Q504.829,412.183,504.716,412.046 Q504.603,411.91,504.33,411.91 L504.33,411.91 L495.576,411.91 Q494.714,411.91,494.714,411.23 L494.714,411.23 Z M534.086,407.057 Q534.086,406.195,534.812,406.195 L534.812,406.195 L557.673,406.195 Q558.353,406.195,558.353,406.966 L558.353,406.966 L558.308,411.049 Q558.308,412.001,557.355,412.001 L557.355,412.001 L542.886,412.001 Q542.024,412.001,542.024,412.727 L542.024,412.727 L542.024,419.304 Q542.024,420.075,542.704,420.075 L542.704,420.075 L552.32,420.075 Q553.091,420.075,553.091,420.801 L553.091,420.801 L553.091,425.155 Q553.091,425.79,552.366,425.79 L552.366,425.79 L542.659,425.79 Q542.024,425.79,542.024,426.335 L542.024,426.335 L542.024,433.456 Q542.024,433.773,542.137,433.91 Q542.251,434.046,542.523,434.046 L542.523,434.046 L558.036,434.046 Q558.852,434.046,558.852,434.726 L558.852,434.726 L558.852,439.035 Q558.852,439.852,557.945,439.852 L557.945,439.852 L535.084,439.852 Q534.54,439.852,534.313,439.625 Q534.086,439.398,534.086,438.899 L534.086,438.899 L534.086,407.057 Z M570.555,407.057 Q570.555,406.195,571.28,406.195 L571.28,406.195 L577.767,406.195 Q578.492,406.195,578.492,407.012 L578.492,407.012 L578.492,433.456 Q578.492,433.773,578.606,433.91 Q578.719,434.046,578.991,434.046 L578.991,434.046 L593.461,434.046 Q594.277,434.046,594.277,434.726 L594.277,434.726 L594.277,439.035 Q594.277,439.398,594.051,439.625 Q593.824,439.852,593.416,439.852 L593.416,439.852 L571.553,439.852 Q571.008,439.852,570.781,439.625 Q570.555,439.398,570.555,438.899 L570.555,438.899 L570.555,407.057 Z M628.115,406.195 Q628.75,406.195,628.75,406.649 L628.75,406.649 Q628.75,406.83,628.614,407.102 L628.614,407.102 L617.955,424.566 Q617.683,424.974,617.637,425.359 Q617.592,425.745,617.592,426.97 L617.592,426.97 L617.592,438.763 Q617.592,439.852,616.322,439.852 L616.322,439.852 L610.652,439.852 Q610.108,439.852,609.881,439.625 Q609.654,439.398,609.654,438.899 L609.654,438.899 L609.654,426.697 Q609.654,426.153,609.541,425.858 Q609.427,425.563,609.11,425.019 L609.11,425.019 L598.36,407.238 Q598.178,406.876,598.178,406.739 L598.178,406.739 Q598.178,406.513,598.405,406.354 Q598.632,406.195,599.04,406.195 L599.04,406.195 L605.844,406.195 Q606.388,406.195,606.66,406.354 Q606.933,406.513,607.159,407.012 L607.159,407.012 L613.873,418.805 Q614.145,419.304,614.326,419.304 L614.326,419.304 Q614.553,419.304,614.734,418.896 L614.734,418.896 L621.357,407.012 Q621.629,406.513,621.878,406.354 Q622.128,406.195,622.672,406.195 L622.672,406.195 L628.115,406.195 Z M670.254,440.305 Q665.673,440.305,662.248,438.173 Q658.823,436.041,656.964,432.163 Q655.104,428.285,655.104,423.159 L655.104,423.159 Q655.104,417.898,657.054,413.952 Q659.005,410.005,662.543,407.873 Q666.081,405.742,670.707,405.742 L670.707,405.742 Q674.245,405.742,677.171,407.102 Q680.097,408.463,681.934,410.663 Q683.771,412.863,684.224,415.358 L684.224,415.358 Q684.315,415.63,684.315,416.038 L684.315,416.038 Q684.315,416.537,683.726,416.582 L683.726,416.582 L677.738,417.49 Q677.375,417.49,677.239,417.331 Q677.103,417.172,677.012,416.764 L677.012,416.764 Q676.559,414.405,674.881,412.863 Q673.202,411.321,670.526,411.321 L670.526,411.321 Q667.033,411.321,665.219,414.088 Q663.405,416.855,663.405,422.887 L663.405,422.887 Q663.405,429.192,665.31,431.959 Q667.215,434.726,670.798,434.726 L670.798,434.726 Q673.52,434.726,675.153,433.252 Q676.786,431.778,677.285,429.555 L677.285,429.555 L677.375,428.24 Q677.421,428.149,677.421,427.967 L677.421,427.967 Q677.421,427.559,676.922,427.559 L676.922,427.559 L671.433,427.559 Q671.07,427.559,670.889,427.378 Q670.707,427.196,670.707,426.788 L670.707,426.788 L670.707,423.386 Q670.707,422.751,671.433,422.751 L671.433,422.751 L683.544,422.797 Q684.179,422.797,684.519,423.091 Q684.86,423.386,684.86,423.885 L684.86,423.885 L684.86,439.171 Q684.86,439.489,684.678,439.67 Q684.497,439.852,684.179,439.852 L684.179,439.852 L682.728,439.852 Q681.957,439.852,681.548,439.126 L681.548,439.126 L680.233,435.86 Q680.097,435.542,679.779,435.905 L679.779,435.905 Q678.192,437.856,675.992,439.08 Q673.792,440.305,670.254,440.305 L670.254,440.305 Z M711.621,440.305 Q706.859,440.305,703.343,438.241 Q699.828,436.177,697.946,432.322 Q696.063,428.466,696.063,423.159 L696.063,423.159 Q696.063,417.807,697.968,413.883 Q699.873,409.96,703.389,407.851 Q706.904,405.742,711.621,405.742 L711.621,405.742 Q716.293,405.742,719.786,407.851 Q723.279,409.96,725.184,413.883 Q727.089,417.807,727.089,423.114 L727.089,423.114 Q727.089,428.376,725.206,432.254 Q723.324,436.132,719.831,438.219 Q716.339,440.305,711.621,440.305 L711.621,440.305 Z M711.621,434.726 Q715.386,434.726,717.087,432.004 Q718.788,429.283,718.788,423.205 L718.788,423.205 Q718.788,416.991,717.042,414.133 Q715.295,411.275,711.621,411.275 L711.621,411.275 Q707.857,411.275,706.11,414.133 Q704.364,416.991,704.364,423.205 L704.364,423.205 Q704.364,429.283,706.088,432.004 Q707.811,434.726,711.621,434.726 L711.621,434.726 Z M766.415,438.627 Q766.506,438.899,766.506,439.035 L766.506,439.035 Q766.506,439.398,766.279,439.625 Q766.052,439.852,765.735,439.852 L765.735,439.852 L759.067,439.852 Q758.296,439.852,758.069,439.035 L758.069,439.035 L753.17,426.335 Q753.034,425.972,752.762,425.836 Q752.49,425.7,751.9,425.7 L751.9,425.7 L747.591,425.7 Q747.319,425.7,747.183,425.858 Q747.047,426.017,747.047,426.198 L747.047,426.198 L747.047,438.763 Q747.047,439.353,746.752,439.602 Q746.457,439.852,745.822,439.852 L745.822,439.852 L740.062,439.852 Q739.517,439.852,739.313,439.625 Q739.109,439.398,739.109,438.944 L739.109,438.944 L739.109,407.057 Q739.109,406.195,739.835,406.195 L739.835,406.195 L753.987,406.195 Q760.11,406.195,763.467,408.599 Q766.823,411.003,766.823,415.448 L766.823,415.448 Q766.823,418.76,765.054,421.096 Q763.285,423.432,760.609,424.384 L760.609,424.384 Q760.246,424.52,760.428,425.065 L760.428,425.065 L766.415,438.627 Z M753.261,420.347 Q755.892,420.347,757.253,419.236 Q758.613,418.125,758.613,415.993 L758.613,415.993 Q758.613,413.815,757.23,412.659 Q755.846,411.502,753.488,411.502 L753.488,411.502 L747.909,411.502 Q747.41,411.502,747.228,411.661 Q747.047,411.82,747.047,412.228 L747.047,412.228 L747.047,419.576 Q747.047,419.984,747.183,420.166 Q747.319,420.347,747.682,420.347 L747.682,420.347 L753.261,420.347 Z M792.633,440.305 Q788.051,440.305,784.627,438.173 Q781.202,436.041,779.342,432.163 Q777.483,428.285,777.483,423.159 L777.483,423.159 Q777.483,417.898,779.433,413.952 Q781.384,410.005,784.922,407.873 Q788.46,405.742,793.086,405.742 L793.086,405.742 Q796.624,405.742,799.55,407.102 Q802.476,408.463,804.313,410.663 Q806.15,412.863,806.603,415.358 L806.603,415.358 Q806.694,415.63,806.694,416.038 L806.694,416.038 Q806.694,416.537,806.104,416.582 L806.104,416.582 L800.117,417.49 Q799.754,417.49,799.618,417.331 Q799.482,417.172,799.391,416.764 L799.391,416.764 Q798.938,414.405,797.259,412.863 Q795.581,411.321,792.905,411.321 L792.905,411.321 Q789.412,411.321,787.598,414.088 Q785.783,416.855,785.783,422.887 L785.783,422.887 Q785.783,429.192,787.689,431.959 Q789.594,434.726,793.177,434.726 L793.177,434.726 Q795.899,434.726,797.531,433.252 Q799.164,431.778,799.663,429.555 L799.663,429.555 L799.754,428.24 Q799.799,428.149,799.799,427.967 L799.799,427.967 Q799.799,427.559,799.3,427.559 L799.3,427.559 L793.812,427.559 Q793.449,427.559,793.268,427.378 Q793.086,427.196,793.086,426.788 L793.086,426.788 L793.086,423.386 Q793.086,422.751,793.812,422.751 L793.812,422.751 L805.923,422.797 Q806.558,422.797,806.898,423.091 Q807.238,423.386,807.238,423.885 L807.238,423.885 L807.238,439.171 Q807.238,439.489,807.057,439.67 Q806.875,439.852,806.558,439.852 L806.558,439.852 L805.106,439.852 Q804.335,439.852,803.927,439.126 L803.927,439.126 L802.612,435.86 Q802.476,435.542,802.158,435.905 L802.158,435.905 Q800.571,437.856,798.371,439.08 Q796.171,440.305,792.633,440.305 L792.633,440.305 Z M819.576,407.057 Q819.576,406.195,820.302,406.195 L820.302,406.195 L843.163,406.195 Q843.843,406.195,843.843,406.966 L843.843,406.966 L843.798,411.049 Q843.798,412.001,842.845,412.001 L842.845,412.001 L828.376,412.001 Q827.514,412.001,827.514,412.727 L827.514,412.727 L827.514,419.304 Q827.514,420.075,828.194,420.075 L828.194,420.075 L837.81,420.075 Q838.581,420.075,838.581,420.801 L838.581,420.801 L838.581,425.155 Q838.581,425.79,837.856,425.79 L837.856,425.79 L828.149,425.79 Q827.514,425.79,827.514,426.335 L827.514,426.335 L827.514,433.456 Q827.514,433.773,827.627,433.91 Q827.741,434.046,828.013,434.046 L828.013,434.046 L843.526,434.046 Q844.342,434.046,844.342,434.726 L844.342,434.726 L844.342,439.035 Q844.342,439.852,843.435,439.852 L843.435,439.852 L820.574,439.852 Q820.03,439.852,819.803,439.625 Q819.576,439.398,819.576,438.899 L819.576,438.899 L819.576,407.057 Z M868.019,440.305 Q863.257,440.305,859.741,438.241 Q856.226,436.177,854.344,432.322 Q852.461,428.466,852.461,423.159 L852.461,423.159 Q852.461,417.807,854.366,413.883 Q856.271,409.96,859.787,407.851 Q863.302,405.742,868.019,405.742 L868.019,405.742 Q872.691,405.742,876.184,407.851 Q879.677,409.96,881.582,413.883 Q883.487,417.807,883.487,423.114 L883.487,423.114 Q883.487,428.376,881.604,432.254 Q879.722,436.132,876.229,438.219 Q872.737,440.305,868.019,440.305 L868.019,440.305 Z M868.019,434.726 Q871.784,434.726,873.485,432.004 Q875.186,429.283,875.186,423.205 L875.186,423.205 Q875.186,416.991,873.44,414.133 Q871.694,411.275,868.019,411.275 L868.019,411.275 Q864.255,411.275,862.508,414.133 Q860.762,416.991,860.762,423.205 L860.762,423.205 Q860.762,429.283,862.486,432.004 Q864.209,434.726,868.019,434.726 L868.019,434.726 Z M922.224,427.378 Q922.224,434.272,918.731,437.289 Q915.238,440.305,908.661,440.305 L908.661,440.305 Q901.449,440.305,898.274,436.903 Q895.099,433.501,895.099,426.561 L895.099,426.561 L895.099,407.102 Q895.099,406.694,895.303,406.445 Q895.507,406.195,895.825,406.195 L895.825,406.195 L902.356,406.195 Q903.037,406.195,903.037,407.012 L903.037,407.012 L903.037,427.559 Q903.037,431.233,904.602,432.934 Q906.166,434.635,909.251,434.635 L909.251,434.635 Q915.692,434.635,915.692,427.423 L915.692,427.423 L915.692,407.057 Q915.692,406.195,916.372,406.195 L916.372,406.195 L921.543,406.195 Q922.224,406.195,922.224,407.012 L922.224,407.012 L922.224,427.378 Z M954.338,414.133 Q953.158,412.818,951.639,412.069 Q950.119,411.321,947.67,411.321 L947.67,411.321 Q944.903,411.321,943.452,412.319 Q942,413.317,942,414.949 L942,414.949 Q942,417.308,945.674,418.397 L945.674,418.397 L952.841,420.438 Q956.878,421.572,958.851,424.021 Q960.824,426.471,960.824,429.918 L960.824,429.918 Q960.824,433.093,959.191,435.429 Q957.558,437.765,954.497,439.035 Q951.435,440.305,947.307,440.305 L947.307,440.305 Q942.68,440.305,938.961,438.74 Q935.242,437.175,933.518,434.454 L933.518,434.454 Q933.337,434.136,933.337,433.864 L933.337,433.864 Q933.337,433.501,933.79,433.093 L933.79,433.093 L937.283,430.689 Q937.736,430.417,938.099,430.417 L938.099,430.417 Q938.507,430.417,938.78,430.78 L938.78,430.78 Q940.458,432.957,942.182,433.864 Q943.905,434.771,946.763,434.771 L946.763,434.771 Q949.802,434.771,951.526,433.819 Q953.249,432.866,953.249,430.961 L953.249,430.961 Q953.249,429.736,952.387,428.875 Q951.526,428.013,949.484,427.378 L949.484,427.378 L942.635,425.427 Q938.734,424.339,936.602,421.776 Q934.47,419.213,934.47,415.947 L934.47,415.947 Q934.47,413.044,936.081,410.731 Q937.691,408.418,940.639,407.08 Q943.588,405.742,947.443,405.742 L947.443,405.742 Q951.253,405.742,954.428,407.034 Q957.604,408.327,959.282,410.504 L959.282,410.504 Q959.554,410.867,959.554,411.139 L959.554,411.139 Q959.554,411.411,959.282,411.638 L959.282,411.638 L955.472,414.45 Q955.2,414.632,955.064,414.632 L955.064,414.632 Q954.837,414.632,954.338,414.133 L954.338,414.133 Z M262.421,448.266 L277.339,448.266 Q279.008,448.266,279.008,450.143 L279.008,450.143 L279.008,523.165 Q279.008,524.521,278.382,525.095 Q277.756,525.669,276.191,525.669 L276.191,525.669 L263.047,525.669 Q261.795,525.669,261.274,525.147 Q260.752,524.626,260.752,523.478 L260.752,523.478 L260.752,450.248 Q260.752,448.266,262.421,448.266 L262.421,448.266 Z M360.897,448.266 L372.476,448.266 Q373.832,448.266,373.832,449.83 L373.832,449.83 L373.832,524 Q373.832,524.73,373.258,525.2 Q372.684,525.669,371.85,525.669 L371.85,525.669 L361.314,525.669 Q360.375,525.669,359.853,525.46 Q359.332,525.252,358.706,524.417 L358.706,524.417 L325.429,477.683 Q325.011,477.162,324.646,477.266 Q324.281,477.37,324.281,477.892 L324.281,477.892 L324.281,523.791 L324.281,524.104 Q324.281,524.939,323.812,525.304 Q323.342,525.669,322.195,525.669 L322.195,525.669 L311.346,525.669 Q309.26,525.669,309.26,523.896 L309.26,523.896 L309.26,450.248 Q309.26,448.266,311.137,448.266 L311.137,448.266 L323.76,448.266 Q325.011,448.266,325.533,448.526 Q326.055,448.787,326.785,449.83 L326.785,449.83 L357.454,493.539 Q358.08,494.374,358.497,494.374 L358.497,494.374 Q359.019,494.374,359.019,493.226 L359.019,493.226 L359.019,450.143 Q359.019,448.266,360.897,448.266 L360.897,448.266 Z M400.224,459.845 L400.224,450.143 Q400.224,449.309,400.798,448.787 Q401.372,448.266,402.31,448.266 L402.31,448.266 L462.188,448.266 Q464.275,448.266,464.275,450.143 L464.275,450.143 L464.275,459.845 Q464.275,461.41,462.397,461.41 L462.397,461.41 L442.89,461.41 Q441.742,461.41,441.742,462.453 L441.742,462.453 L441.742,523.687 Q441.742,525.669,439.969,525.669 L439.969,525.669 L425.052,525.669 Q423.487,525.669,423.487,523.896 L423.487,523.896 L423.487,462.766 Q423.487,462.036,423.226,461.723 Q422.965,461.41,422.339,461.41 L422.339,461.41 L402.206,461.41 Q400.224,461.41,400.224,459.845 L400.224,459.845 Z M490.771,450.248 Q490.771,448.266,492.44,448.266 L492.44,448.266 L545.016,448.266 Q546.581,448.266,546.581,450.039 L546.581,450.039 L546.477,459.428 Q546.477,461.618,544.286,461.618 L544.286,461.618 L511.009,461.618 Q509.027,461.618,509.027,463.287 L509.027,463.287 L509.027,478.413 Q509.027,480.187,510.592,480.187 L510.592,480.187 L532.707,480.187 Q534.48,480.187,534.48,481.856 L534.48,481.856 L534.48,491.87 Q534.48,493.331,532.811,493.331 L532.811,493.331 L510.487,493.331 Q509.027,493.331,509.027,494.582 L509.027,494.582 L509.027,510.96 Q509.027,511.69,509.288,512.003 Q509.548,512.316,510.174,512.316 L510.174,512.316 L545.851,512.316 Q547.728,512.316,547.728,513.881 L547.728,513.881 L547.728,523.791 Q547.728,525.669,545.642,525.669 L545.642,525.669 L493.066,525.669 Q491.814,525.669,491.293,525.147 Q490.771,524.626,490.771,523.478 L490.771,523.478 L490.771,450.248 Z M637.441,522.852 Q637.65,523.478,637.65,523.791 L637.65,523.791 Q637.65,524.626,637.128,525.147 Q636.607,525.669,635.876,525.669 L635.876,525.669 L620.542,525.669 Q618.768,525.669,618.247,523.791 L618.247,523.791 L606.981,494.582 Q606.668,493.748,606.042,493.435 Q605.416,493.122,604.06,493.122 L604.06,493.122 L594.15,493.122 Q593.524,493.122,593.211,493.487 Q592.898,493.852,592.898,494.27 L592.898,494.27 L592.898,523.165 Q592.898,524.521,592.22,525.095 Q591.542,525.669,590.081,525.669 L590.081,525.669 L576.833,525.669 Q575.581,525.669,575.112,525.147 Q574.642,524.626,574.642,523.583 L574.642,523.583 L574.642,450.248 Q574.642,448.266,576.311,448.266 L576.311,448.266 L608.858,448.266 Q622.941,448.266,630.661,453.794 Q638.38,459.323,638.38,469.546 L638.38,469.546 Q638.38,477.162,634.312,482.534 Q630.243,487.906,624.089,490.097 L624.089,490.097 Q623.254,490.41,623.671,491.662 L623.671,491.662 L637.441,522.852 Z M607.189,480.813 Q613.24,480.813,616.369,478.257 Q619.499,475.701,619.499,470.798 L619.499,470.798 Q619.499,465.791,616.317,463.131 Q613.135,460.471,607.711,460.471 L607.711,460.471 L594.88,460.471 Q593.732,460.471,593.315,460.836 Q592.898,461.201,592.898,462.14 L592.898,462.14 L592.898,479.039 Q592.898,479.978,593.211,480.395 Q593.524,480.813,594.358,480.813 L594.358,480.813 L607.189,480.813 Z M667.276,448.266 L682.193,448.266 Q683.862,448.266,683.862,450.143 L683.862,450.143 L683.862,523.165 Q683.862,524.521,683.236,525.095 Q682.61,525.669,681.046,525.669 L681.046,525.669 L667.902,525.669 Q666.65,525.669,666.128,525.147 Q665.607,524.626,665.607,523.478 L665.607,523.478 L665.607,450.248 Q665.607,448.266,667.276,448.266 L667.276,448.266 Z M747.287,526.712 Q736.334,526.712,728.249,521.966 Q720.165,517.219,715.835,508.352 Q711.506,499.485,711.506,487.28 L711.506,487.28 Q711.506,474.971,715.888,465.947 Q720.269,456.924,728.353,452.073 Q736.438,447.223,747.287,447.223 L747.287,447.223 Q758.032,447.223,766.064,452.073 Q774.097,456.924,778.478,465.947 Q782.859,474.971,782.859,487.176 L782.859,487.176 Q782.859,499.277,778.53,508.196 Q774.201,517.115,766.168,521.914 Q758.136,526.712,747.287,526.712 L747.287,526.712 Z M747.287,513.881 Q755.945,513.881,759.857,507.622 Q763.769,501.363,763.769,487.385 L763.769,487.385 Q763.769,473.093,759.753,466.521 Q755.737,459.949,747.287,459.949 L747.287,459.949 Q738.629,459.949,734.613,466.521 Q730.596,473.093,730.596,487.385 L730.596,487.385 Q730.596,501.363,734.56,507.622 Q738.524,513.881,747.287,513.881 L747.287,513.881 Z M873.302,522.852 Q873.511,523.478,873.511,523.791 L873.511,523.791 Q873.511,524.626,872.989,525.147 Q872.468,525.669,871.737,525.669 L871.737,525.669 L856.403,525.669 Q854.629,525.669,854.108,523.791 L854.108,523.791 L842.841,494.582 Q842.529,493.748,841.903,493.435 Q841.277,493.122,839.921,493.122 L839.921,493.122 L830.01,493.122 Q829.385,493.122,829.072,493.487 Q828.759,493.852,828.759,494.27 L828.759,494.27 L828.759,523.165 Q828.759,524.521,828.081,525.095 Q827.403,525.669,825.942,525.669 L825.942,525.669 L812.694,525.669 Q811.442,525.669,810.973,525.147 Q810.503,524.626,810.503,523.583 L810.503,523.583 L810.503,450.248 Q810.503,448.266,812.172,448.266 L812.172,448.266 L844.719,448.266 Q858.802,448.266,866.521,453.794 Q874.241,459.323,874.241,469.546 L874.241,469.546 Q874.241,477.162,870.173,482.534 Q866.104,487.906,859.949,490.097 L859.949,490.097 Q859.115,490.41,859.532,491.662 L859.532,491.662 L873.302,522.852 Z M843.05,480.813 Q849.101,480.813,852.23,478.257 Q855.36,475.701,855.36,470.798 L855.36,470.798 Q855.36,465.791,852.178,463.131 Q848.996,460.471,843.572,460.471 L843.572,460.471 L830.741,460.471 Q829.593,460.471,829.176,460.836 Q828.759,461.201,828.759,462.14 L828.759,462.14 L828.759,479.039 Q828.759,479.978,829.072,480.395 Q829.385,480.813,830.219,480.813 L830.219,480.813 L843.05,480.813 Z M945.907,466.521 Q943.195,463.496,939.7,461.775 Q936.205,460.054,930.572,460.054 L930.572,460.054 Q924.209,460.054,920.871,462.348 Q917.533,464.643,917.533,468.399 L917.533,468.399 Q917.533,473.823,925.982,476.327 L925.982,476.327 L942.464,481.021 Q951.749,483.629,956.286,489.262 Q960.824,494.895,960.824,502.824 L960.824,502.824 Q960.824,510.126,957.069,515.498 Q953.313,520.87,946.272,523.791 Q939.23,526.712,929.738,526.712 L929.738,526.712 Q919.097,526.712,910.543,523.113 Q901.989,519.514,898.025,513.255 L898.025,513.255 Q897.608,512.525,897.608,511.899 L897.608,511.899 Q897.608,511.065,898.651,510.126 L898.651,510.126 L906.684,504.597 Q907.727,503.971,908.561,503.971 L908.561,503.971 Q909.5,503.971,910.126,504.806 L910.126,504.806 Q913.986,509.813,917.95,511.899 Q921.914,513.985,928.486,513.985 L928.486,513.985 Q935.475,513.985,939.439,511.795 Q943.403,509.604,943.403,505.223 L943.403,505.223 Q943.403,502.406,941.421,500.424 Q939.439,498.442,934.745,496.982 L934.745,496.982 L918.993,492.496 Q910.022,489.993,905.119,484.099 Q900.216,478.205,900.216,470.694 L900.216,470.694 Q900.216,464.018,903.919,458.697 Q907.622,453.377,914.403,450.3 Q921.184,447.223,930.051,447.223 L930.051,447.223 Q938.813,447.223,946.115,450.196 Q953.418,453.169,957.277,458.176 L957.277,458.176 Q957.903,459.01,957.903,459.636 L957.903,459.636 Q957.903,460.262,957.277,460.784 L957.277,460.784 L948.515,467.251 Q947.889,467.669,947.576,467.669 L947.576,467.669 Q947.054,467.669,945.907,466.521 L945.907,466.521 Z"></path>
		<path id="def-6" d="M264.381,542.132 Q268.756,545.534,273.132,542.132 T281.883,542.132 T290.634,542.132 T299.384,542.132 T308.135,542.132 T316.886,542.132 T325.637,542.132 T334.388,542.132 T343.139,542.132 T351.89,542.132 T360.641,542.132 T369.392,542.132 T378.143,542.132 T386.893,542.132 T395.644,542.132 T404.395,542.132 T413.146,542.132 T421.897,542.132 T430.648,542.132 T439.399,542.132 T448.15,542.132 T456.901,542.132 T465.652,542.132 T474.402,542.132 T483.153,542.132 T491.904,542.132 T500.655,542.132 T509.406,542.132 T518.157,542.132 T526.908,542.132 T535.659,542.132 T544.41,542.132 T553.161,542.132 T561.911,542.132 T570.662,542.132 T579.413,542.132 T588.164,542.132 T596.915,542.132 T605.666,542.132 T614.417,542.132 T623.168,542.132 T631.919,542.132 T640.67,542.132 T649.42,542.132 T658.171,542.132 T666.922,542.132 T675.673,542.132 T684.424,542.132 T693.175,542.132 T701.926,542.132 T710.677,542.132 T719.428,542.132 T728.179,542.132 T736.929,542.132 T745.68,542.132 T754.431,542.132 T763.182,542.132 T771.933,542.132 T780.684,542.132 T789.435,542.132 T798.186,542.132 T806.937,542.132 T815.688,542.132 T824.438,542.132 T833.189,542.132 T841.94,542.132 T850.691,542.132 T859.442,542.132 T868.193,542.132 T876.944,542.132 T885.695,542.132 T894.446,542.132 T903.197,542.132 T911.947,542.132 T920.698,542.132 T929.449,542.132 T938.2,542.132 T946.951,542.132 T955.702,542.132 T964.453,542.132" stroke-linecap="round" stroke-linejoin="round" stroke-miterlimit="25"></path>
		<path id="def-7" d="M271.266,580.343 Q273.914,580.841,275.265,582.565 Q276.615,584.289,276.615,586.937 L276.615,586.937 Q276.615,590.562,274.118,592.357 Q271.621,594.152,266.165,594.152 L266.165,594.152 Q263.393,594.152,260.78,593.832 L260.78,593.832 L260.78,567.92 Q263.624,567.369,266.716,567.369 L266.716,567.369 Q269.915,567.369,271.932,568.098 Q273.949,568.827,274.909,570.337 Q275.869,571.848,275.869,574.229 L275.869,574.229 Q275.869,576.487,274.776,578.13 Q273.683,579.774,271.266,580.343 L271.266,580.343 Z M266.84,569.164 Q264.619,569.164,262.824,569.484 L262.824,569.484 L262.824,579.508 L267.018,579.508 Q269.577,579.508,271.079,578.912 Q272.581,578.317,273.212,577.18 Q273.843,576.042,273.843,574.301 L273.843,574.301 Q273.843,572.452,273.15,571.333 Q272.457,570.213,270.928,569.689 Q269.4,569.164,266.84,569.164 L266.84,569.164 Z M266.485,592.339 Q269.435,592.339,271.204,591.762 Q272.972,591.184,273.781,590.002 Q274.589,588.821,274.589,586.937 L274.589,586.937 Q274.589,584.129,272.919,582.742 Q271.248,581.356,267.694,581.356 L267.694,581.356 L262.824,581.356 L262.824,592.18 Q264.37,592.339,266.485,592.339 L266.485,592.339 Z M291.544,594.259 Q288.665,594.259,286.834,593.255 Q285.004,592.251,284.133,590.189 Q283.262,588.127,283.262,584.893 L283.262,584.893 L283.262,567.636 L285.342,567.636 L285.342,585.159 Q285.342,588.892,286.808,590.642 Q288.274,592.393,291.544,592.393 L291.544,592.393 Q294.814,592.393,296.28,590.642 Q297.747,588.892,297.747,585.159 L297.747,585.159 L297.747,567.636 L299.773,567.636 L299.773,584.893 Q299.773,588.127,298.911,590.189 Q298.049,592.251,296.236,593.255 Q294.423,594.259,291.544,594.259 L291.544,594.259 Z M309.974,593.939 L307.912,593.939 L307.912,567.636 L309.974,567.636 L309.974,593.939 Z M331.674,593.939 L318.256,593.939 L318.256,567.636 L320.318,567.636 L320.318,592.02 L331.674,592.02 L331.674,593.939 Z M342.107,594.152 Q340.045,594.152,337.308,593.868 L337.308,593.868 L337.308,567.902 Q340.223,567.369,342.675,567.369 L342.675,567.369 Q348.38,567.369,351.179,570.648 Q353.978,573.927,353.978,580.787 L353.978,580.787 Q353.978,585.479,352.646,588.43 Q351.313,591.38,348.691,592.766 Q346.07,594.152,342.107,594.152 L342.107,594.152 Z M342.426,592.268 Q345.625,592.268,347.687,591.122 Q349.749,589.976,350.779,587.452 Q351.81,584.928,351.81,580.787 L351.81,580.787 Q351.81,576.682,350.833,574.141 Q349.855,571.599,347.865,570.417 Q345.874,569.235,342.746,569.235 L342.746,569.235 Q341.236,569.235,339.37,569.502 L339.37,569.502 L339.37,592.108 Q340.631,592.268,342.426,592.268 L342.426,592.268 Z M363.238,593.939 L361.176,593.939 L361.176,567.636 L363.238,567.636 L363.238,593.939 Z M386.644,590.438 L386.644,567.636 L388.617,567.636 L388.617,593.939 L386.431,593.939 L373.493,571.137 L373.493,593.939 L371.52,593.939 L371.52,567.636 L373.706,567.636 L386.644,590.438 Z M410.157,581.143 L412.147,581.143 L412.147,593.708 Q409.659,594.152,407.509,594.152 L407.509,594.152 Q403.563,594.152,400.995,592.837 Q398.427,591.522,397.112,588.589 Q395.797,585.657,395.797,580.823 L395.797,580.823 Q395.797,575.953,397.094,572.959 Q398.392,569.964,400.809,568.64 Q403.226,567.316,406.78,567.316 L406.78,567.316 Q409.446,567.316,411.774,568.009 L411.774,568.009 L411.774,569.911 Q409.428,569.2,406.816,569.2 L406.816,569.2 Q403.883,569.2,401.946,570.275 Q400.009,571.35,398.996,573.91 Q397.983,576.469,397.983,580.841 L397.983,580.841 Q397.983,585.124,399.014,587.63 Q400.044,590.136,402.097,591.202 Q404.15,592.268,407.384,592.268 L407.384,592.268 Q408.824,592.268,410.157,592.055 L410.157,592.055 L410.157,581.143 Z M443.711,567.636 L443.711,569.538 L432.195,569.538 L432.195,579.614 L442.094,579.614 L442.094,581.516 L432.195,581.516 L432.195,593.939 L430.133,593.939 L430.133,567.636 L443.711,567.636 Z M457.129,594.259 Q452.793,594.259,450.438,591.069 Q448.083,587.879,448.083,580.787 L448.083,580.787 Q448.083,573.696,450.438,570.506 Q452.793,567.316,457.129,567.316 L457.129,567.316 Q461.466,567.316,463.812,570.506 Q466.158,573.696,466.158,580.787 L466.158,580.787 Q466.158,587.879,463.812,591.069 Q461.466,594.259,457.129,594.259 L457.129,594.259 Z M457.129,592.393 Q459.315,592.393,460.826,591.318 Q462.337,590.242,463.163,587.701 Q463.989,585.159,463.989,580.876 L463.989,580.876 Q463.989,576.504,463.163,573.927 Q462.337,571.35,460.826,570.266 Q459.315,569.182,457.129,569.182 L457.129,569.182 Q454.926,569.182,453.415,570.257 Q451.904,571.333,451.078,573.874 Q450.251,576.415,450.251,580.699 L450.251,580.699 Q450.251,585.071,451.078,587.648 Q451.904,590.225,453.415,591.309 Q454.926,592.393,457.129,592.393 L457.129,592.393 Z M490.328,593.939 L488.018,593.939 L480.145,582.689 Q479.38,582.76,478.314,582.76 L478.314,582.76 Q476.626,582.76,475.399,582.654 L475.399,582.654 L475.399,593.939 L473.338,593.939 L473.338,567.902 Q476.341,567.369,479.114,567.369 L479.114,567.369 Q483.699,567.369,485.965,569.271 Q488.231,571.173,488.231,574.958 L488.231,574.958 Q488.267,577.962,486.738,579.828 Q485.21,581.694,482.188,582.369 L482.188,582.369 L490.328,593.939 Z M478.225,580.965 Q482.384,580.965,484.303,579.517 Q486.223,578.068,486.223,574.994 L486.223,574.994 Q486.223,572.008,484.552,570.595 Q482.881,569.182,479.185,569.182 L479.185,569.182 Q477.141,569.182,475.399,569.484 L475.399,569.484 L475.399,580.859 Q477.07,580.965,478.225,580.965 L478.225,580.965 Z M517.289,580.343 Q519.937,580.841,521.288,582.565 Q522.638,584.289,522.638,586.937 L522.638,586.937 Q522.638,590.562,520.141,592.357 Q517.644,594.152,512.188,594.152 L512.188,594.152 Q509.416,594.152,506.803,593.832 L506.803,593.832 L506.803,567.92 Q509.647,567.369,512.739,567.369 L512.739,567.369 Q515.938,567.369,517.955,568.098 Q519.972,568.827,520.932,570.337 Q521.892,571.848,521.892,574.229 L521.892,574.229 Q521.892,576.487,520.799,578.13 Q519.706,579.774,517.289,580.343 L517.289,580.343 Z M512.864,569.164 Q510.642,569.164,508.847,569.484 L508.847,569.484 L508.847,579.508 L513.041,579.508 Q515.6,579.508,517.102,578.912 Q518.604,578.317,519.235,577.18 Q519.866,576.042,519.866,574.301 L519.866,574.301 Q519.866,572.452,519.173,571.333 Q518.48,570.213,516.951,569.689 Q515.423,569.164,512.864,569.164 L512.864,569.164 Z M512.508,592.339 Q515.458,592.339,517.227,591.762 Q518.995,591.184,519.804,590.002 Q520.612,588.821,520.612,586.937 L520.612,586.937 Q520.612,584.129,518.942,582.742 Q517.271,581.356,513.717,581.356 L513.717,581.356 L508.847,581.356 L508.847,592.18 Q510.393,592.339,512.508,592.339 L512.508,592.339 Z M531.489,581.374 L531.489,592.055 L543.343,592.055 L543.343,593.939 L529.427,593.939 L529.427,567.636 L543.165,567.636 L543.165,569.52 L531.489,569.52 L531.489,579.49 L541.53,579.49 L541.53,581.374 L531.489,581.374 Z M566.483,593.939 L564.332,593.939 L561.506,585.053 L551.59,585.053 L548.781,593.939 L546.684,593.939 L555.144,567.636 L558.023,567.636 L566.483,593.939 Z M556.548,569.431 L552.194,583.169 L560.92,583.169 L556.548,569.431 Z M580.345,594.259 Q577.466,594.259,575.636,593.255 Q573.805,592.251,572.934,590.189 Q572.063,588.127,572.063,584.893 L572.063,584.893 L572.063,567.636 L574.143,567.636 L574.143,585.159 Q574.143,588.892,575.609,590.642 Q577.075,592.393,580.345,592.393 L580.345,592.393 Q583.615,592.393,585.082,590.642 Q586.548,588.892,586.548,585.159 L586.548,585.159 L586.548,567.636 L588.574,567.636 L588.574,584.893 Q588.574,588.127,587.712,590.189 Q586.85,592.251,585.037,593.255 Q583.224,594.259,580.345,594.259 L580.345,594.259 Z M604.018,593.939 L601.939,593.939 L601.939,569.555 L594.119,569.555 L594.119,567.636 L611.838,567.636 L611.838,569.555 L604.018,569.555 L604.018,593.939 Z M630.961,567.636 L633.111,567.636 L624.776,582.067 L624.776,593.939 L622.697,593.939 L622.697,582.085 L614.219,567.636 L616.512,567.636 L623.763,580.077 L630.961,567.636 Z M666.008,593.939 L663.858,593.939 L661.032,585.053 L651.115,585.053 L648.307,593.939 L646.21,593.939 L654.669,567.636 L657.548,567.636 L666.008,593.939 Z M656.073,569.431 L651.719,583.169 L660.445,583.169 L656.073,569.431 Z M687.068,590.438 L687.068,567.636 L689.041,567.636 L689.041,593.939 L686.855,593.939 L673.917,571.137 L673.917,593.939 L671.944,593.939 L671.944,567.636 L674.13,567.636 L687.068,590.438 Z M702.122,594.152 Q700.06,594.152,697.323,593.868 L697.323,593.868 L697.323,567.902 Q700.238,567.369,702.69,567.369 L702.69,567.369 Q708.395,567.369,711.194,570.648 Q713.993,573.927,713.993,580.787 L713.993,580.787 Q713.993,585.479,712.661,588.43 Q711.328,591.38,708.706,592.766 Q706.085,594.152,702.122,594.152 L702.122,594.152 Z M702.441,592.268 Q705.64,592.268,707.702,591.122 Q709.764,589.976,710.794,587.452 Q711.825,584.928,711.825,580.787 L711.825,580.787 Q711.825,576.682,710.848,574.141 Q709.87,571.599,707.88,570.417 Q705.889,569.235,702.761,569.235 L702.761,569.235 Q701.251,569.235,699.385,569.502 L699.385,569.502 L699.385,592.108 Q700.646,592.268,702.441,592.268 L702.441,592.268 Z M748.916,593.939 L746.766,593.939 L743.94,585.053 L734.023,585.053 L731.215,593.939 L729.118,593.939 L737.577,567.636 L740.457,567.636 L748.916,593.939 Z M738.981,569.431 L734.627,583.169 L743.353,583.169 L738.981,569.431 Z M763.383,594.259 Q760.166,594.259,757.953,592.97 Q755.741,591.682,754.55,588.714 Q753.359,585.746,753.359,580.823 L753.359,580.823 Q753.359,575.971,754.559,572.985 Q755.759,570,758.025,568.658 Q760.291,567.316,763.649,567.316 L763.649,567.316 Q766.049,567.316,768.377,567.991 L768.377,567.991 L768.377,569.893 Q767.151,569.502,766.022,569.351 Q764.894,569.2,763.614,569.2 L763.614,569.2 Q760.895,569.2,759.135,570.275 Q757.376,571.35,756.461,573.892 Q755.545,576.433,755.545,580.752 L755.545,580.752 Q755.545,585.159,756.469,587.719 Q757.394,590.278,759.135,591.326 Q760.877,592.375,763.507,592.375 L763.507,592.375 Q764.698,592.375,765.853,592.162 Q767.008,591.948,768.377,591.469 L768.377,591.469 L768.377,593.388 Q765.96,594.259,763.383,594.259 L763.383,594.259 Z M782.826,594.259 Q779.609,594.259,777.396,592.97 Q775.184,591.682,773.993,588.714 Q772.802,585.746,772.802,580.823 L772.802,580.823 Q772.802,575.971,774.002,572.985 Q775.202,570,777.468,568.658 Q779.733,567.316,783.092,567.316 L783.092,567.316 Q785.492,567.316,787.82,567.991 L787.82,567.991 L787.82,569.893 Q786.594,569.502,785.465,569.351 Q784.337,569.2,783.057,569.2 L783.057,569.2 Q780.338,569.2,778.578,570.275 Q776.819,571.35,775.904,573.892 Q774.988,576.433,774.988,580.752 L774.988,580.752 Q774.988,585.159,775.912,587.719 Q776.837,590.278,778.578,591.326 Q780.32,592.375,782.95,592.375 L782.95,592.375 Q784.141,592.375,785.296,592.162 Q786.451,591.948,787.82,591.469 L787.82,591.469 L787.82,593.388 Q785.403,594.259,782.826,594.259 L782.826,594.259 Z M795.8,581.374 L795.8,592.055 L807.654,592.055 L807.654,593.939 L793.738,593.939 L793.738,567.636 L807.476,567.636 L807.476,569.52 L795.8,569.52 L795.8,579.49 L805.841,579.49 L805.841,581.374 L795.8,581.374 Z M817.837,594.259 Q816.611,594.259,815.216,594.019 Q813.821,593.779,812.577,593.335 L812.577,593.335 L812.577,591.451 Q815.367,592.393,817.909,592.393 L817.909,592.393 Q820.823,592.393,822.316,591.087 Q823.809,589.78,823.809,587.203 L823.809,587.203 Q823.809,585.728,823.329,584.742 Q822.849,583.755,821.819,583.045 Q820.788,582.334,819.01,581.712 L819.01,581.712 L817.909,581.338 Q815.101,580.361,813.67,578.664 Q812.239,576.966,812.239,574.283 L812.239,574.283 Q812.239,572.115,813.163,570.551 Q814.088,568.987,815.9,568.151 Q817.713,567.316,820.343,567.316 L820.343,567.316 Q821.534,567.316,822.778,567.485 Q824.022,567.654,824.929,567.956 L824.929,567.956 L824.929,569.857 Q822.796,569.182,820.397,569.182 L820.397,569.182 Q817.358,569.182,815.865,570.462 Q814.372,571.741,814.372,574.158 L814.372,574.158 Q814.372,575.562,814.825,576.513 Q815.278,577.464,816.274,578.157 Q817.269,578.85,818.975,579.437 L818.975,579.437 L820.077,579.828 Q823.009,580.823,824.484,582.556 Q825.959,584.289,825.959,587.043 L825.959,587.043 Q825.959,590.491,823.845,592.375 Q821.73,594.259,817.837,594.259 L817.837,594.259 Z M836.57,594.259 Q835.343,594.259,833.948,594.019 Q832.553,593.779,831.309,593.335 L831.309,593.335 L831.309,591.451 Q834.099,592.393,836.641,592.393 L836.641,592.393 Q839.555,592.393,841.048,591.087 Q842.541,589.78,842.541,587.203 L842.541,587.203 Q842.541,585.728,842.061,584.742 Q841.581,583.755,840.551,583.045 Q839.52,582.334,837.743,581.712 L837.743,581.712 L836.641,581.338 Q833.833,580.361,832.402,578.664 Q830.971,576.966,830.971,574.283 L830.971,574.283 Q830.971,572.115,831.895,570.551 Q832.82,568.987,834.632,568.151 Q836.445,567.316,839.075,567.316 L839.075,567.316 Q840.266,567.316,841.51,567.485 Q842.754,567.654,843.661,567.956 L843.661,567.956 L843.661,569.857 Q841.528,569.182,839.129,569.182 L839.129,569.182 Q836.09,569.182,834.597,570.462 Q833.104,571.741,833.104,574.158 L833.104,574.158 Q833.104,575.562,833.557,576.513 Q834.01,577.464,835.006,578.157 Q836.001,578.85,837.707,579.437 L837.707,579.437 L838.809,579.828 Q841.741,580.823,843.216,582.556 Q844.692,584.289,844.692,587.043 L844.692,587.043 Q844.692,590.491,842.577,592.375 Q840.462,594.259,836.57,594.259 L836.57,594.259 Z M853.4,593.939 L851.338,593.939 L851.338,567.636 L853.4,567.636 L853.4,593.939 Z M872.168,580.343 Q874.816,580.841,876.166,582.565 Q877.517,584.289,877.517,586.937 L877.517,586.937 Q877.517,590.562,875.02,592.357 Q872.523,594.152,867.067,594.152 L867.067,594.152 Q864.294,594.152,861.682,593.832 L861.682,593.832 L861.682,567.92 Q864.526,567.369,867.618,567.369 L867.618,567.369 Q870.817,567.369,872.834,568.098 Q874.851,568.827,875.811,570.337 Q876.771,571.848,876.771,574.229 L876.771,574.229 Q876.771,576.487,875.678,578.13 Q874.585,579.774,872.168,580.343 L872.168,580.343 Z M867.742,569.164 Q865.521,569.164,863.726,569.484 L863.726,569.484 L863.726,579.508 L867.92,579.508 Q870.479,579.508,871.981,578.912 Q873.483,578.317,874.114,577.18 Q874.745,576.042,874.745,574.301 L874.745,574.301 Q874.745,572.452,874.052,571.333 Q873.358,570.213,871.83,569.689 Q870.302,569.164,867.742,569.164 L867.742,569.164 Z M867.387,592.339 Q870.337,592.339,872.105,591.762 Q873.874,591.184,874.682,590.002 Q875.491,588.821,875.491,586.937 L875.491,586.937 Q875.491,584.129,873.82,582.742 Q872.15,581.356,868.595,581.356 L868.595,581.356 L863.726,581.356 L863.726,592.18 Q865.272,592.339,867.387,592.339 L867.387,592.339 Z M886.368,593.939 L884.306,593.939 L884.306,567.636 L886.368,567.636 L886.368,593.939 Z M908.068,593.939 L894.65,593.939 L894.65,567.636 L896.711,567.636 L896.711,592.02 L908.068,592.02 L908.068,593.939 Z M915.763,593.939 L913.702,593.939 L913.702,567.636 L915.763,567.636 L915.763,593.939 Z M931.35,593.939 L929.27,593.939 L929.27,569.555 L921.45,569.555 L921.45,567.636 L939.17,567.636 L939.17,569.555 L931.35,569.555 L931.35,593.939 Z M958.293,567.636 L960.443,567.636 L952.108,582.067 L952.108,593.939 L950.028,593.939 L950.028,582.085 L941.551,567.636 L943.844,567.636 L951.095,580.077 L958.293,567.636 Z"></path>
		<mask id="mask-2" x="1.407" y="374.002" width="251.717" height="251.997" maskUnits="userSpaceOnUse" stroke-width="0">
			<rect x="12.849" y="385.443" width="228.834" height="229.113" fill="#000"></rect>
			<use xlink:href="#def-4" fill="#fff" stroke="#fff"></use>
		</mask>
		<mask id="mask-3" x="260.219" y="536.27" width="708.395" height="11.725" maskUnits="userSpaceOnUse" stroke-width="0">
			<rect x="260.752" y="536.803" width="707.329" height="10.659" fill="#000"></rect>
			<use xlink:href="#def-6" stroke-width="7.257" stroke="#fff"></use>
		</mask>
		<mask id="mask-4" x="241.396" y="386.382" width="738.784" height="159.686" maskUnits="userSpaceOnUse" stroke-width="0">
			<rect x="248.655" y="393.64" width="724.267" height="145.169" fill="#000"></rect>
			<use xlink:href="#def-5" fill="#fff" stroke="#fff"></use>
		</mask>
		<mask id="mask-5" x="256.437" y="563.005" width="708.317" height="35.565" maskUnits="userSpaceOnUse" stroke-width="0">
			<rect x="258.054" y="564.622" width="705.084" height="32.332" fill="#000"></rect>
			<use xlink:href="#def-7" fill="#fff" stroke="#fff"></use>
		</mask>
	</defs>
	<g mask="url(#mask-2)">
		<rect x="12.849" y="385.443" width="228.834" height="229.113" fill="#000"></rect>
	</g>
	<g mask="url(#mask-3)">
		<rect x="260.752" y="536.803" width="707.329" height="10.659" fill="#000"></rect>
	</g>
	<g mask="url(#mask-4)">
		<rect x="248.655" y="393.64" width="724.267" height="145.169" fill="#000"></rect>
	</g>
	<g mask="url(#mask-5)">
		<rect x="258.054" y="564.622" width="705.084" height="32.332" fill="#000"></rect>
	</g>
</svg>
